# File created by Blade
# Date/Time:  Wed Jan 21 16:20:01 2015
# Frame Rate: 120.000 fps
#------------------------------------------------------
:FULLY-SPECIFIED
:DEGREES
559
root 15.371007 35.701505 -18.080610 -182.387578 -16.459156 -179.946542
Spine 10.803122 -19.552463 -6.871156
Head 12.986431 1.783829 9.431872
LeftShoulder 7.943038 -27.990182 -5.217317
LeftArm 25.411564 52.252818 -50.980386
LeftForeArm 8.909363 -0.000000 19.308336
LeftHand 0.485683 -0.000000 -8.342949
LeftHandThumb1 -26.253704 0.000000 33.147579
RightShoulder -9.117539 -11.263948 12.600777
RightArm 6.065145 10.573569 63.529052
RightForeArm -27.602452 0.000000 25.398995
RightHand -1.619304 -0.000000 4.667859
RightHandThumb1 -24.326973 -0.000000 -32.862282
LeftUpLeg 7.641171 -2.788354 -6.830620
LeftLeg -14.431508 -0.000000 0.000000
LeftFoot 4.539287 22.335199 4.484613
LeftToeBase -161.591583 -0.000000 0.000000
RightUpLeg -57.508038 25.895272 3.254312
RightLeg 92.121664 -0.000000 -0.000000
RightFoot 24.210530 -38.082402 -12.070702
RightToeBase 23.807464 -0.000000 -0.000000
560
root 15.359722 35.708369 -18.086982 -182.602883 -16.825793 -179.908319
Spine 11.069118 -20.154136 -7.017983
Head 13.117317 1.996557 9.519259
LeftShoulder 8.298719 -28.023651 -5.401002
LeftArm 26.319328 53.352078 -49.979691
LeftForeArm 9.069904 -0.000000 19.451999
LeftHand 0.549117 -0.000000 -9.253738
LeftHandThumb1 -26.253704 0.000000 33.147579
RightShoulder -9.116739 -11.245121 12.625489
RightArm 6.025596 10.553164 63.541374
RightForeArm -27.946437 0.000000 25.501598
RightHand -1.460330 0.000000 4.579593
RightHandThumb1 -24.326973 -0.000000 -32.862282
LeftUpLeg 7.831521 -2.874336 -6.822772
LeftLeg -14.386058 -0.000000 0.000000
LeftFoot 4.520237 22.105819 4.415116
LeftToeBase -161.666269 -0.000000 0.000000
RightUpLeg -58.480734 26.162464 3.487192
RightLeg 93.475294 -0.000000 -0.000000
RightFoot 24.335420 -37.428054 -12.384972
RightToeBase 24.382043 -0.000000 -0.000000
561
root 15.347561 35.714310 -18.095975 -182.777480 -17.180702 -179.870635
Spine 11.259360 -20.704642 -7.131051
Head 13.233922 2.173165 9.593343
LeftShoulder 8.625474 -28.008826 -5.561278
LeftArm 27.493202 54.601254 -48.753396
LeftForeArm 9.308028 0.000000 19.552678
LeftHand 0.539175 -0.000000 -10.099127
LeftHandThumb1 -26.253704 0.000000 33.147579
RightShoulder -9.204927 -11.322259 12.657636
RightArm 6.093500 10.561626 63.579334
RightForeArm -28.093923 -0.000000 25.679431
RightHand -1.686668 -0.000000 4.907591
RightHandThumb1 -24.326973 -0.000000 -32.862282
LeftUpLeg 7.999120 -2.964286 -6.810364
LeftLeg -14.372496 -0.000000 0.000000
LeftFoot 4.454563 21.901960 4.377463
LeftToeBase -161.889867 -0.000000 0.000000
RightUpLeg -59.449484 26.437907 3.699516
RightLeg 94.730947 -0.000000 -0.000000
RightFoot 24.454310 -36.834521 -12.427318
RightToeBase 24.175821 -0.000000 -0.000000
562
root 15.333839 35.718876 -18.103379 -182.943725 -17.578155 -179.836277
Spine 11.455403 -21.312438 -7.250948
Head 13.337408 2.383861 9.660294
LeftShoulder 8.940657 -28.056057 -5.693155
LeftArm 28.560798 55.884971 -47.571793
LeftForeArm 9.681154 -0.000000 19.778277
LeftHand 0.549560 0.000000 -10.979302
LeftHandThumb1 -26.253704 0.000000 33.147579
RightShoulder -9.204251 -11.280168 12.649058
RightArm 5.988360 10.637636 63.615122
RightForeArm -28.229868 -0.000000 25.914732
RightHand -1.760406 -0.000000 5.118241
RightHandThumb1 -24.326973 -0.000000 -32.862282
LeftUpLeg 8.143907 -3.076468 -6.813071
LeftLeg -14.327426 -0.000000 0.000000
LeftFoot 4.419323 21.688142 4.333874
LeftToeBase -161.960622 -0.000000 0.000000
RightUpLeg -60.387013 26.618053 3.934824
RightLeg 95.932271 -0.000000 -0.000000
RightFoot 24.491204 -36.323937 -12.472093
RightToeBase 24.243082 -0.000000 -0.000000
563
root 15.322976 35.723187 -18.114794 -183.126578 -17.914115 -179.808599
Spine 11.663866 -21.818490 -7.396537
Head 13.419588 2.535136 9.764926
LeftShoulder 9.206020 -28.034918 -5.760317
LeftArm 29.881050 57.180694 -46.181441
LeftForeArm 10.106757 0.000000 19.998689
LeftHand 0.547248 -0.000000 -11.974754
LeftHandThumb1 -26.253704 0.000000 33.147579
RightShoulder -9.278422 -11.188610 12.677560
RightArm 5.899827 10.635985 63.624700
RightForeArm -28.440373 0.000000 26.101327
RightHand -1.809198 -0.000000 5.374728
RightHandThumb1 -24.326973 -0.000000 -32.862282
LeftUpLeg 8.339544 -3.171316 -6.812709
LeftLeg -14.338846 -0.000000 0.000000
LeftFoot 4.455120 21.481913 4.262376
LeftToeBase -161.998571 -0.000000 0.000000
RightUpLeg -61.255591 26.859707 4.192937
RightLeg 97.041232 -0.000000 -0.000000
RightFoot 24.556529 -35.893006 -12.559582
RightToeBase 24.601531 -0.000000 -0.000000
